<svg xmlns="http://www.w3.org/2000/svg" xmlns:xlink="http://www.w3.org/1999/xlink" width="500" zoomAndPan="magnify" viewBox="0 0 375 374.999991" height="500" preserveAspectRatio="xMidYMid meet" version="1.0"><defs><g/><clipPath id="5c018fd53f"><path d="M 57.910156 118.28125 L 122.375 118.28125 L 122.375 236.566406 L 57.910156 236.566406 Z M 57.910156 118.28125 " clip-rule="nonzero"/></clipPath><clipPath id="c49b2e1772"><path d="M 116.429688 165.417969 L 140.4375 165.417969 L 140.4375 189.425781 L 116.429688 189.425781 Z M 116.429688 165.417969 " clip-rule="nonzero"/></clipPath><clipPath id="4937696be4"><path d="M 128.433594 165.417969 C 121.804688 165.417969 116.429688 170.792969 116.429688 177.421875 C 116.429688 184.054688 121.804688 189.425781 128.433594 189.425781 C 135.0625 189.425781 140.4375 184.054688 140.4375 177.421875 C 140.4375 170.792969 135.0625 165.417969 128.433594 165.417969 " clip-rule="nonzero"/></clipPath><clipPath id="f0031dba10"><path d="M 131.371094 150.570312 L 156 150.570312 L 156 237 L 131.371094 237 Z M 131.371094 150.570312 " clip-rule="nonzero"/></clipPath><clipPath id="99421c60c5"><path d="M 143.371094 150.570312 L 143.785156 150.570312 C 146.96875 150.570312 150.023438 151.835938 152.273438 154.085938 C 154.523438 156.335938 155.785156 159.390625 155.785156 162.570312 L 155.785156 224.566406 C 155.785156 227.75 154.523438 230.800781 152.273438 233.050781 C 150.023438 235.300781 146.96875 236.566406 143.785156 236.566406 L 143.371094 236.566406 C 140.1875 236.566406 137.136719 235.300781 134.886719 233.050781 C 132.636719 230.800781 131.371094 227.75 131.371094 224.566406 L 131.371094 162.570312 C 131.371094 159.390625 132.636719 156.335938 134.886719 154.085938 C 137.136719 151.835938 140.1875 150.570312 143.371094 150.570312 " clip-rule="nonzero"/></clipPath><clipPath id="fae3eb50ac"><path d="M 131.371094 118.28125 L 155.785156 118.28125 L 155.785156 142.695312 L 131.371094 142.695312 Z M 131.371094 118.28125 " clip-rule="nonzero"/></clipPath><clipPath id="1106b8051d"><path d="M 143.578125 118.28125 C 136.835938 118.28125 131.371094 123.746094 131.371094 130.488281 C 131.371094 137.230469 136.835938 142.695312 143.578125 142.695312 C 150.320312 142.695312 155.785156 137.230469 155.785156 130.488281 C 155.785156 123.746094 150.320312 118.28125 143.578125 118.28125 " clip-rule="nonzero"/></clipPath><clipPath id="4252ccbb8a"><path d="M 216.03125 110.394531 L 240.984375 110.394531 L 240.984375 237 L 216.03125 237 Z M 216.03125 110.394531 " clip-rule="nonzero"/></clipPath><clipPath id="b0c523791d"><path d="M 228.03125 110.394531 L 228.449219 110.394531 C 231.632812 110.394531 234.683594 111.660156 236.933594 113.910156 C 239.183594 116.160156 240.449219 119.210938 240.449219 122.394531 L 240.449219 224.566406 C 240.449219 227.75 239.183594 230.800781 236.933594 233.050781 C 234.683594 235.300781 231.632812 236.566406 228.449219 236.566406 L 228.03125 236.566406 C 224.851562 236.566406 221.796875 235.300781 219.546875 233.050781 C 217.296875 230.800781 216.03125 227.75 216.03125 224.566406 L 216.03125 122.394531 C 216.03125 119.210938 217.296875 116.160156 219.546875 113.910156 C 221.796875 111.660156 224.851562 110.394531 228.03125 110.394531 " clip-rule="nonzero"/></clipPath><clipPath id="6d31c7a2b4"><path d="M 216.03125 212.925781 L 274.25 212.925781 L 274.25 237 L 216.03125 237 Z M 216.03125 212.925781 " clip-rule="nonzero"/></clipPath><clipPath id="7e7383aa38"><path d="M 227.851562 212.925781 L 262.253906 212.925781 C 265.386719 212.925781 268.394531 214.171875 270.613281 216.390625 C 272.828125 218.605469 274.074219 221.613281 274.074219 224.746094 C 274.074219 227.882812 272.828125 230.886719 270.613281 233.105469 C 268.394531 235.320312 265.386719 236.566406 262.253906 236.566406 L 227.851562 236.566406 C 224.71875 236.566406 221.710938 235.320312 219.496094 233.105469 C 217.277344 230.886719 216.03125 227.882812 216.03125 224.746094 C 216.03125 221.613281 217.277344 218.605469 219.496094 216.390625 C 221.710938 214.171875 224.71875 212.925781 227.851562 212.925781 " clip-rule="nonzero"/></clipPath><clipPath id="1267b8b4b3"><path d="M 245.054688 110.398438 L 337.304688 110.398438 L 337.304688 236.394531 L 245.054688 236.394531 Z M 245.054688 110.398438 " clip-rule="nonzero"/></clipPath><clipPath id="794be4a056"><path d="M 291.179688 110.398438 C 265.703125 110.398438 245.054688 138.601562 245.054688 173.394531 C 245.054688 208.1875 265.703125 236.394531 291.179688 236.394531 C 316.652344 236.394531 337.304688 208.1875 337.304688 173.394531 C 337.304688 138.601562 316.652344 110.398438 291.179688 110.398438 " clip-rule="nonzero"/></clipPath><clipPath id="6589503859"><path d="M 258.078125 140.039062 L 324.828125 140.039062 L 324.828125 206.789062 L 258.078125 206.789062 Z M 258.078125 140.039062 " clip-rule="nonzero"/></clipPath></defs><g clip-path="url(#5c018fd53f)"><path fill="#000000" d="M 122.375 177.421875 C 122.375 144.785156 95.917969 118.328125 63.28125 118.328125 C 60.3125 118.328125 57.910156 120.734375 57.910156 123.703125 L 57.910156 231.144531 C 57.910156 234.113281 60.3125 236.515625 63.28125 236.515625 C 95.917969 236.515625 122.375 210.058594 122.375 177.421875 Z M 122.375 177.421875 " fill-opacity="1" fill-rule="evenodd"/></g><g clip-path="url(#c49b2e1772)"><g clip-path="url(#4937696be4)"><path fill="#000000" d="M 116.429688 165.417969 L 140.4375 165.417969 L 140.4375 189.425781 L 116.429688 189.425781 Z M 116.429688 165.417969 " fill-opacity="1" fill-rule="nonzero"/></g></g><path stroke-linecap="round" transform="matrix(0.589796, 0, 0, 0.591434, 37.500002, 156.622079)" fill="none" stroke-linejoin="miter" d="M 6.497214 6.497368 L 38.625659 6.497368 " stroke="#000000" stroke-width="13" stroke-opacity="1" stroke-miterlimit="4"/><path stroke-linecap="round" transform="matrix(0.589796, 0, 0, 0.591434, 37.500002, 190.544534)" fill="none" stroke-linejoin="miter" d="M 6.497214 6.502993 L 38.625659 6.502993 " stroke="#000000" stroke-width="13" stroke-opacity="1" stroke-miterlimit="4"/><g clip-path="url(#f0031dba10)"><g clip-path="url(#99421c60c5)"><path fill="#000000" d="M 131.371094 150.570312 L 156.320312 150.570312 L 156.320312 236.515625 L 131.371094 236.515625 Z M 131.371094 150.570312 " fill-opacity="1" fill-rule="nonzero"/></g></g><g clip-path="url(#fae3eb50ac)"><g clip-path="url(#1106b8051d)"><path fill="#000000" d="M 131.371094 118.28125 L 155.785156 118.28125 L 155.785156 142.695312 L 131.371094 142.695312 Z M 131.371094 118.28125 " fill-opacity="1" fill-rule="nonzero"/></g></g><g fill="#000000" fill-opacity="1"><g transform="translate(143.578838, 236.696309)"><g><path d="M 8.238281 -35.867188 C 8.238281 -13.570312 19.550781 1.617188 42.816406 1.617188 C 66.40625 1.617188 77.714844 -13.570312 77.714844 -35.867188 L 77.714844 -59.296875 C 77.714844 -62.527344 75.128906 -65.113281 71.738281 -65.113281 L 48.792969 -65.113281 C 45.5625 -65.113281 42.816406 -62.527344 42.816406 -59.296875 L 42.816406 -50.085938 C 42.816406 -46.855469 45.5625 -44.269531 48.792969 -44.269531 L 56.550781 -44.269531 L 56.550781 -35.867188 C 56.550781 -24.234375 52.027344 -19.386719 42.816406 -19.386719 C 33.929688 -19.386719 29.40625 -24.234375 29.40625 -35.867188 L 29.40625 -72.222656 C 29.40625 -83.855469 35.382812 -88.703125 44.269531 -88.703125 C 50.25 -88.703125 53.804688 -86.765625 57.195312 -82.886719 C 60.105469 -80.300781 62.527344 -79.171875 65.757812 -81.269531 L 74.324219 -86.765625 C 76.585938 -88.21875 77.394531 -92.582031 75.617188 -94.84375 C 69.960938 -102.921875 59.457031 -109.707031 44.269531 -109.707031 C 21.003906 -109.707031 8.238281 -94.519531 8.238281 -72.222656 Z M 8.238281 -35.867188 "/></g></g></g><g clip-path="url(#4252ccbb8a)"><g clip-path="url(#b0c523791d)"><path fill="#000000" d="M 216.03125 110.394531 L 240.984375 110.394531 L 240.984375 236.535156 L 216.03125 236.535156 Z M 216.03125 110.394531 " fill-opacity="1" fill-rule="nonzero"/></g></g><g clip-path="url(#6d31c7a2b4)"><g clip-path="url(#7e7383aa38)"><path fill="#000000" d="M 216.03125 212.925781 L 274.25 212.925781 L 274.25 236.492188 L 216.03125 236.492188 Z M 216.03125 212.925781 " fill-opacity="1" fill-rule="nonzero"/></g></g><g clip-path="url(#1267b8b4b3)"><g clip-path="url(#794be4a056)"><path stroke-linecap="butt" transform="matrix(0.748479, 0, 0, 0.749025, 245.05304, 110.397034)" fill="none" stroke-linejoin="miter" d="M 61.627207 0.00187437 C 27.589412 0.00187437 0.00220166 37.655008 0.00220166 84.106042 C 0.00220166 130.557076 27.589412 168.215425 61.627207 168.215425 C 95.659783 168.215425 123.252212 130.557076 123.252212 84.106042 C 123.252212 37.655008 95.659783 0.00187437 61.627207 0.00187437 " stroke="#000000" stroke-width="48" stroke-opacity="1" stroke-miterlimit="4"/></g></g><g clip-path="url(#6589503859)"><path fill="#000000" d="M 323.4375 174.378906 C 324.207031 174.378906 324.828125 174.039062 324.828125 173.277344 C 324.828125 172.511719 324.207031 172.171875 323.4375 172.171875 L 312.867188 172.171875 L 312.867188 163.335938 L 323.4375 163.335938 C 324.207031 163.335938 324.828125 162.996094 324.828125 162.230469 C 324.828125 161.464844 324.207031 161.125 323.4375 161.125 L 312.867188 161.125 L 312.867188 154.222656 C 312.867188 153.460938 311.691406 152.289062 310.921875 152.289062 L 303.96875 152.289062 L 303.96875 141.796875 C 303.96875 141.03125 303.625 140.417969 302.855469 140.417969 C 302.085938 140.417969 301.742188 141.035156 301.742188 141.796875 L 301.742188 152.289062 L 292.84375 152.289062 L 292.84375 141.796875 C 292.84375 141.03125 292.5 140.417969 291.730469 140.417969 C 290.960938 140.417969 290.617188 141.035156 290.617188 141.796875 L 290.617188 152.289062 L 281.71875 152.289062 L 281.71875 141.796875 C 281.71875 141.03125 281.375 140.417969 280.605469 140.417969 C 279.835938 140.417969 279.492188 141.035156 279.492188 141.796875 L 279.492188 152.289062 L 271.984375 152.289062 C 271.210938 152.289062 270.59375 153.457031 270.59375 154.222656 L 270.59375 161.125 L 259.46875 161.125 C 258.695312 161.125 258.078125 161.464844 258.078125 162.230469 C 258.078125 162.996094 258.695312 163.335938 259.46875 163.335938 L 270.59375 163.335938 L 270.59375 172.171875 L 259.46875 172.171875 C 258.695312 172.171875 258.078125 172.511719 258.078125 173.277344 C 258.078125 174.039062 258.695312 174.378906 259.46875 174.378906 L 270.59375 174.378906 L 270.59375 183.214844 L 259.46875 183.214844 C 258.695312 183.214844 258.078125 183.554688 258.078125 184.320312 C 258.078125 185.085938 258.695312 185.425781 259.46875 185.425781 L 270.59375 185.425781 L 270.59375 192.878906 C 270.59375 193.644531 271.210938 194.261719 271.984375 194.261719 L 279.492188 194.261719 L 279.492188 205.304688 C 279.492188 206.070312 279.835938 206.6875 280.605469 206.6875 C 281.375 206.6875 281.71875 206.070312 281.71875 205.304688 L 281.71875 194.261719 L 290.617188 194.261719 L 290.617188 205.304688 C 290.617188 206.070312 290.960938 206.6875 291.730469 206.6875 C 292.5 206.6875 292.84375 206.070312 292.84375 205.304688 L 292.84375 194.261719 L 301.742188 194.261719 L 301.742188 205.304688 C 301.742188 206.070312 302.085938 206.6875 302.855469 206.6875 C 303.625 206.6875 303.96875 206.070312 303.96875 205.304688 L 303.96875 194.261719 L 310.921875 194.261719 C 311.691406 194.261719 312.867188 193.644531 312.867188 192.878906 L 312.867188 185.425781 L 323.4375 185.425781 C 324.207031 185.425781 324.828125 185.085938 324.828125 184.320312 C 324.828125 183.554688 324.207031 183.214844 323.4375 183.214844 L 312.867188 183.214844 L 312.867188 174.378906 Z M 303.96875 184.042969 C 303.96875 184.808594 303.34375 185.425781 302.578125 185.425781 L 280.882812 185.425781 C 280.113281 185.425781 279.492188 184.808594 279.492188 184.042969 L 279.492188 162.507812 C 279.492188 161.746094 280.113281 161.125 280.882812 161.125 L 302.578125 161.125 C 303.34375 161.125 303.96875 161.742188 303.96875 162.507812 Z M 303.96875 184.042969 " fill-opacity="1" fill-rule="nonzero"/></g><path fill="#000000" d="M 281.71875 163.335938 L 301.742188 163.335938 L 301.742188 183.214844 L 281.71875 183.214844 Z M 281.71875 163.335938 " fill-opacity="1" fill-rule="nonzero"/></svg>